<mxfile host="app.diagrams.net" modified="2024-04-01T19:59:13.435Z" agent="Mozilla/5.0 (Macintosh; Intel Mac OS X 10_15_7) AppleWebKit/537.36 (KHTML, like Gecko) Chrome/123.0.0.0 Safari/537.36" etag="q8d0vXzt32NnB-tDxFsi" version="24.1.0" type="github">
  <diagram name="Page-1" id="f01cJWDkCD-xYu5ZR60B">
    <mxGraphModel dx="1085" dy="699" grid="1" gridSize="10" guides="1" tooltips="1" connect="1" arrows="1" fold="1" page="1" pageScale="1" pageWidth="850" pageHeight="1100" math="0" shadow="0">
      <root>
        <mxCell id="0" />
        <mxCell id="1" parent="0" />
        <mxCell id="XzmpzIO01Iv6JAZEhYC7-3" value="1 bit" style="rounded=1;whiteSpace=wrap;html=1;absoluteArcSize=1;arcSize=14;strokeWidth=2;" vertex="1" parent="1">
          <mxGeometry x="50" y="113" width="40" height="100" as="geometry" />
        </mxCell>
        <mxCell id="XzmpzIO01Iv6JAZEhYC7-4" value="11 bits" style="rounded=1;whiteSpace=wrap;html=1;absoluteArcSize=1;arcSize=14;strokeWidth=2;" vertex="1" parent="1">
          <mxGeometry x="110" y="113" width="60" height="100" as="geometry" />
        </mxCell>
        <mxCell id="XzmpzIO01Iv6JAZEhYC7-5" value="1 bit" style="rounded=1;whiteSpace=wrap;html=1;absoluteArcSize=1;arcSize=14;strokeWidth=2;" vertex="1" parent="1">
          <mxGeometry x="190" y="113" width="40" height="100" as="geometry" />
        </mxCell>
        <mxCell id="XzmpzIO01Iv6JAZEhYC7-6" value="2 bits" style="rounded=1;whiteSpace=wrap;html=1;absoluteArcSize=1;arcSize=14;strokeWidth=2;" vertex="1" parent="1">
          <mxGeometry x="250" y="113" width="40" height="100" as="geometry" />
        </mxCell>
        <mxCell id="XzmpzIO01Iv6JAZEhYC7-7" value="4 bits" style="rounded=1;whiteSpace=wrap;html=1;absoluteArcSize=1;arcSize=14;strokeWidth=2;" vertex="1" parent="1">
          <mxGeometry x="310" y="113" width="50" height="100" as="geometry" />
        </mxCell>
        <mxCell id="XzmpzIO01Iv6JAZEhYC7-8" value="7 bits" style="rounded=1;whiteSpace=wrap;html=1;absoluteArcSize=1;arcSize=14;strokeWidth=2;" vertex="1" parent="1">
          <mxGeometry x="655" y="110" width="60" height="100" as="geometry" />
        </mxCell>
        <mxCell id="XzmpzIO01Iv6JAZEhYC7-9" value="2 bits" style="rounded=1;whiteSpace=wrap;html=1;absoluteArcSize=1;arcSize=14;strokeWidth=2;" vertex="1" parent="1">
          <mxGeometry x="595" y="110" width="45" height="100" as="geometry" />
        </mxCell>
        <mxCell id="XzmpzIO01Iv6JAZEhYC7-10" value="16 bits" style="rounded=1;whiteSpace=wrap;html=1;absoluteArcSize=1;arcSize=14;strokeWidth=2;" vertex="1" parent="1">
          <mxGeometry x="510" y="110" width="60" height="100" as="geometry" />
        </mxCell>
        <mxCell id="XzmpzIO01Iv6JAZEhYC7-11" value="0-64 bits" style="rounded=1;whiteSpace=wrap;html=1;absoluteArcSize=1;arcSize=14;strokeWidth=2;" vertex="1" parent="1">
          <mxGeometry x="387.5" y="113" width="95" height="100" as="geometry" />
        </mxCell>
        <mxCell id="XzmpzIO01Iv6JAZEhYC7-12" value="SOF&amp;nbsp;&lt;div&gt;Start of&lt;/div&gt;&lt;div&gt;&amp;nbsp;Frame&lt;/div&gt;" style="text;html=1;align=center;verticalAlign=middle;resizable=0;points=[];autosize=1;strokeColor=none;fillColor=none;" vertex="1" parent="1">
          <mxGeometry x="50" y="215" width="60" height="60" as="geometry" />
        </mxCell>
        <mxCell id="XzmpzIO01Iv6JAZEhYC7-13" value="CAN ID&lt;div&gt;&amp;nbsp;Message&amp;nbsp;&lt;/div&gt;&lt;div&gt;Identifier&lt;/div&gt;" style="text;html=1;align=center;verticalAlign=middle;resizable=0;points=[];autosize=1;strokeColor=none;fillColor=none;" vertex="1" parent="1">
          <mxGeometry x="100" y="213" width="80" height="60" as="geometry" />
        </mxCell>
        <mxCell id="XzmpzIO01Iv6JAZEhYC7-14" value="RTR&amp;nbsp;&lt;div&gt;Remote&lt;/div&gt;&lt;div&gt;Transmission&amp;nbsp;&lt;/div&gt;&lt;div&gt;Request&lt;/div&gt;" style="text;html=1;align=center;verticalAlign=middle;resizable=0;points=[];autosize=1;strokeColor=none;fillColor=none;" vertex="1" parent="1">
          <mxGeometry x="170" y="213" width="100" height="70" as="geometry" />
        </mxCell>
        <mxCell id="XzmpzIO01Iv6JAZEhYC7-15" value="Reserved" style="text;html=1;align=center;verticalAlign=middle;resizable=0;points=[];autosize=1;strokeColor=none;fillColor=none;" vertex="1" parent="1">
          <mxGeometry x="240" y="218" width="70" height="30" as="geometry" />
        </mxCell>
        <mxCell id="XzmpzIO01Iv6JAZEhYC7-16" value="DLC&lt;div&gt;Data&lt;/div&gt;&lt;div&gt;Length&lt;/div&gt;&lt;div&gt;Code&lt;/div&gt;" style="text;html=1;align=center;verticalAlign=middle;resizable=0;points=[];autosize=1;strokeColor=none;fillColor=none;" vertex="1" parent="1">
          <mxGeometry x="310" y="213" width="60" height="70" as="geometry" />
        </mxCell>
        <mxCell id="XzmpzIO01Iv6JAZEhYC7-17" value="Data" style="text;html=1;align=center;verticalAlign=middle;resizable=0;points=[];autosize=1;strokeColor=none;fillColor=none;" vertex="1" parent="1">
          <mxGeometry x="410" y="218" width="50" height="30" as="geometry" />
        </mxCell>
        <mxCell id="XzmpzIO01Iv6JAZEhYC7-18" value="CRC-15&lt;div&gt;Cyclic&lt;/div&gt;&lt;div&gt;Redundancy Check&lt;/div&gt;" style="text;html=1;align=center;verticalAlign=middle;resizable=0;points=[];autosize=1;strokeColor=none;fillColor=none;" vertex="1" parent="1">
          <mxGeometry x="475" y="210" width="130" height="60" as="geometry" />
        </mxCell>
        <mxCell id="XzmpzIO01Iv6JAZEhYC7-19" value="Acknowledgement" style="text;html=1;align=center;verticalAlign=middle;resizable=0;points=[];autosize=1;strokeColor=none;fillColor=none;" vertex="1" parent="1">
          <mxGeometry x="570" y="218" width="120" height="30" as="geometry" />
        </mxCell>
        <mxCell id="XzmpzIO01Iv6JAZEhYC7-20" value="EOF&lt;div&gt;End of Frame&lt;/div&gt;" style="text;html=1;align=center;verticalAlign=middle;resizable=0;points=[];autosize=1;strokeColor=none;fillColor=none;" vertex="1" parent="1">
          <mxGeometry x="650" y="220" width="100" height="40" as="geometry" />
        </mxCell>
      </root>
    </mxGraphModel>
  </diagram>
</mxfile>
